<?xml version="1.0" encoding="UTF-8" standalone="no"?>
<!DOCTYPE svg PUBLIC "-//W3C//DTD SVG 1.1//EN"
 "http://www.w3.org/Graphics/SVG/1.1/DTD/svg11.dtd">
<!-- Generated by graphviz version 2.43.0 (0)
 -->
<!-- Title: asn_data_pipeline Pages: 1 -->
<svg width="661pt" height="499pt"
 viewBox="0.00 0.00 660.54 499.00" xmlns="http://www.w3.org/2000/svg" xmlns:xlink="http://www.w3.org/1999/xlink">
<g id="graph0" class="graph" transform="scale(1 1) rotate(0) translate(4 495)">
<title>asn_data_pipeline</title>
<polygon fill="white" stroke="transparent" points="-4,4 -4,-495 656.54,-495 656.54,4 -4,4"/>
<text text-anchor="middle" x="326.27" y="-475.8" font-family="Times,serif" font-size="14.00">IP to Vendor pipeline</text>
<!-- ASNDataSourcePyASN -->
<g id="node1" class="node">
<title>ASNDataSourcePyASN</title>
<ellipse fill="none" stroke="black" cx="326.27" cy="-450" rx="96.68" ry="18"/>
<text text-anchor="middle" x="326.27" y="-446.3" font-family="Times,serif" font-size="14.00">PyASN (ASN data)</text>
</g>
<!-- Logs -->
<g id="node2" class="node">
<title>Logs</title>
<ellipse fill="none" stroke="black" cx="326.27" cy="-378" rx="191.97" ry="18"/>
<text text-anchor="middle" x="326.27" y="-374.3" font-family="Times,serif" font-size="14.00">Kubernetes Public Artifact Traffic Logs</text>
</g>
<!-- ASNDataSourcePyASN&#45;&gt;Logs -->
<g id="edge1" class="edge">
<title>ASNDataSourcePyASN&#45;&gt;Logs</title>
<path fill="none" stroke="black" d="M326.27,-431.7C326.27,-423.98 326.27,-414.71 326.27,-406.11"/>
<polygon fill="black" stroke="black" points="329.77,-406.1 326.27,-396.1 322.77,-406.1 329.77,-406.1"/>
</g>
<!-- IPs -->
<g id="node3" class="node">
<title>IPs</title>
<ellipse fill="none" stroke="black" cx="326.27" cy="-306" rx="27" ry="18"/>
<text text-anchor="middle" x="326.27" y="-302.3" font-family="Times,serif" font-size="14.00">IPs</text>
</g>
<!-- Logs&#45;&gt;IPs -->
<g id="edge2" class="edge">
<title>Logs&#45;&gt;IPs</title>
<path fill="none" stroke="black" d="M326.27,-359.7C326.27,-351.98 326.27,-342.71 326.27,-334.11"/>
<polygon fill="black" stroke="black" points="329.77,-334.1 326.27,-324.1 322.77,-334.1 329.77,-334.1"/>
</g>
<!-- IPBlock -->
<g id="node4" class="node">
<title>IPBlock</title>
<ellipse fill="none" stroke="black" cx="326.27" cy="-234" rx="48.99" ry="18"/>
<text text-anchor="middle" x="326.27" y="-230.3" font-family="Times,serif" font-size="14.00">IP Block</text>
</g>
<!-- IPs&#45;&gt;IPBlock -->
<g id="edge3" class="edge">
<title>IPs&#45;&gt;IPBlock</title>
<path fill="none" stroke="black" d="M326.27,-287.7C326.27,-279.98 326.27,-270.71 326.27,-262.11"/>
<polygon fill="black" stroke="black" points="329.77,-262.1 326.27,-252.1 322.77,-262.1 329.77,-262.1"/>
</g>
<!-- ASN -->
<g id="node5" class="node">
<title>ASN</title>
<ellipse fill="none" stroke="black" cx="326.27" cy="-162" rx="31.4" ry="18"/>
<text text-anchor="middle" x="326.27" y="-158.3" font-family="Times,serif" font-size="14.00">ASN</text>
</g>
<!-- IPBlock&#45;&gt;ASN -->
<g id="edge4" class="edge">
<title>IPBlock&#45;&gt;ASN</title>
<path fill="none" stroke="black" d="M326.27,-215.7C326.27,-207.98 326.27,-198.71 326.27,-190.11"/>
<polygon fill="black" stroke="black" points="329.77,-190.1 326.27,-180.1 322.77,-190.1 329.77,-190.1"/>
</g>
<!-- Vendor -->
<g id="node6" class="node">
<title>Vendor</title>
<ellipse fill="none" stroke="black" cx="326.27" cy="-90" rx="43.59" ry="18"/>
<text text-anchor="middle" x="326.27" y="-86.3" font-family="Times,serif" font-size="14.00">Vendor</text>
</g>
<!-- ASN&#45;&gt;Vendor -->
<g id="edge5" class="edge">
<title>ASN&#45;&gt;Vendor</title>
<path fill="none" stroke="black" d="M326.27,-143.7C326.27,-135.98 326.27,-126.71 326.27,-118.11"/>
<polygon fill="black" stroke="black" points="329.77,-118.1 326.27,-108.1 322.77,-118.1 329.77,-118.1"/>
</g>
<!-- Discussion -->
<g id="node7" class="node">
<title>Discussion</title>
<ellipse fill="none" stroke="black" cx="326.27" cy="-18" rx="326.04" ry="18"/>
<text text-anchor="middle" x="326.27" y="-14.3" font-family="Times,serif" font-size="14.00">Discussion through relationship with vendor connections and CNCF</text>
</g>
<!-- Vendor&#45;&gt;Discussion -->
<g id="edge6" class="edge">
<title>Vendor&#45;&gt;Discussion</title>
<path fill="none" stroke="black" d="M326.27,-71.7C326.27,-63.98 326.27,-54.71 326.27,-46.11"/>
<polygon fill="black" stroke="black" points="329.77,-46.1 326.27,-36.1 322.77,-46.1 329.77,-46.1"/>
</g>
</g>
</svg>
