<?xml version="1.0" encoding="UTF-8" standalone="no"?>
<!DOCTYPE svg PUBLIC "-//W3C//DTD SVG 1.1//EN"
 "http://www.w3.org/Graphics/SVG/1.1/DTD/svg11.dtd">
<!-- Generated by graphviz version 2.43.0 (0)
 -->
<!-- Title: asn_data_pipeline Pages: 1 -->
<svg width="825pt" height="328pt"
 viewBox="0.00 0.00 824.84 328.00" xmlns="http://www.w3.org/2000/svg" xmlns:xlink="http://www.w3.org/1999/xlink">
<g id="graph0" class="graph" transform="scale(1 1) rotate(0) translate(4 324)">
<title>asn_data_pipeline</title>
<polygon fill="white" stroke="transparent" points="-4,4 -4,-324 820.84,-324 820.84,4 -4,4"/>
<text text-anchor="middle" x="408.42" y="-304.8" font-family="Times,serif" font-size="14.00">ASN data pipeline</text>
<!-- ASNDataSourcePyASN -->
<g id="node1" class="node">
<title>ASNDataSourcePyASN</title>
<ellipse fill="none" stroke="black" cx="96.84" cy="-279" rx="96.68" ry="18"/>
<text text-anchor="middle" x="96.84" y="-275.3" font-family="Times,serif" font-size="14.00">PyASN (ASN data)</text>
</g>
<!-- PostgresPod -->
<g id="node5" class="node">
<title>PostgresPod</title>
<ellipse fill="none" stroke="black" cx="311.84" cy="-192" rx="71.49" ry="18"/>
<text text-anchor="middle" x="311.84" y="-188.3" font-family="Times,serif" font-size="14.00">Postgres Pod</text>
</g>
<!-- ASNDataSourcePyASN&#45;&gt;PostgresPod -->
<g id="edge1" class="edge">
<title>ASNDataSourcePyASN&#45;&gt;PostgresPod</title>
<path fill="none" stroke="black" d="M123.13,-261.47C140.89,-250.82 165.16,-237.29 187.84,-228 207.85,-219.8 230.44,-212.81 250.79,-207.27"/>
<polygon fill="black" stroke="black" points="251.82,-210.62 260.59,-204.67 250.02,-203.85 251.82,-210.62"/>
<text text-anchor="middle" x="247.84" y="-231.8" font-family="Times,serif" font-size="14.00">ASN data loaded</text>
</g>
<!-- ASNDataSourcePotaroo -->
<g id="node2" class="node">
<title>ASNDataSourcePotaroo</title>
<ellipse fill="none" stroke="black" cx="311.84" cy="-279" rx="100.18" ry="18"/>
<text text-anchor="middle" x="311.84" y="-275.3" font-family="Times,serif" font-size="14.00">Potaroo (ASN data)</text>
</g>
<!-- ASNDataSourcePotaroo&#45;&gt;PostgresPod -->
<g id="edge2" class="edge">
<title>ASNDataSourcePotaroo&#45;&gt;PostgresPod</title>
<path fill="none" stroke="black" d="M311.84,-260.8C311.84,-249.16 311.84,-233.55 311.84,-220.24"/>
<polygon fill="black" stroke="black" points="315.34,-220.18 311.84,-210.18 308.34,-220.18 315.34,-220.18"/>
<text text-anchor="middle" x="371.84" y="-231.8" font-family="Times,serif" font-size="14.00">ASN data loaded</text>
</g>
<!-- ASNToVendorMetadata -->
<g id="node3" class="node">
<title>ASNToVendorMetadata</title>
<ellipse fill="none" stroke="black" cx="555.84" cy="-279" rx="125.38" ry="18"/>
<text text-anchor="middle" x="555.84" y="-275.3" font-family="Times,serif" font-size="14.00">ASN to vendor metadata</text>
</g>
<!-- ASNToVendorMetadata&#45;&gt;PostgresPod -->
<g id="edge3" class="edge">
<title>ASNToVendorMetadata&#45;&gt;PostgresPod</title>
<path fill="none" stroke="black" d="M519.78,-261.65C496.18,-251.27 464.51,-237.98 435.84,-228 414.69,-220.64 391.11,-213.68 370.24,-207.93"/>
<polygon fill="black" stroke="black" points="371.12,-204.55 360.55,-205.3 369.28,-211.3 371.12,-204.55"/>
<text text-anchor="middle" x="562.84" y="-231.8" font-family="Times,serif" font-size="14.00">Data for matching loaded</text>
</g>
<!-- KubernetesPublicArtifactLogs -->
<g id="node4" class="node">
<title>KubernetesPublicArtifactLogs</title>
<ellipse fill="none" stroke="black" cx="560.84" cy="-192" rx="159.47" ry="18"/>
<text text-anchor="middle" x="560.84" y="-188.3" font-family="Times,serif" font-size="14.00">Kubernetes Public Artifact Logs</text>
</g>
<!-- BigQuery -->
<g id="node6" class="node">
<title>BigQuery</title>
<ellipse fill="none" stroke="black" cx="435.84" cy="-105" rx="54.69" ry="18"/>
<text text-anchor="middle" x="435.84" y="-101.3" font-family="Times,serif" font-size="14.00">BigQuery</text>
</g>
<!-- KubernetesPublicArtifactLogs&#45;&gt;BigQuery -->
<g id="edge5" class="edge">
<title>KubernetesPublicArtifactLogs&#45;&gt;BigQuery</title>
<path fill="none" stroke="black" d="M557,-173.61C553.8,-162.88 548.21,-149.59 538.84,-141 526.33,-129.53 509.92,-121.8 493.88,-116.6"/>
<polygon fill="black" stroke="black" points="494.56,-113.15 483.97,-113.68 492.57,-119.87 494.56,-113.15"/>
<text text-anchor="middle" x="682.84" y="-144.8" font-family="Times,serif" font-size="14.00">Public traffic logs for artifacts parsed</text>
</g>
<!-- PostgresPod&#45;&gt;BigQuery -->
<g id="edge4" class="edge">
<title>PostgresPod&#45;&gt;BigQuery</title>
<path fill="none" stroke="black" d="M331.13,-174.45C343.31,-164.31 359.59,-151.34 374.84,-141 382.63,-135.72 391.27,-130.44 399.53,-125.65"/>
<polygon fill="black" stroke="black" points="401.33,-128.65 408.28,-120.66 397.86,-122.57 401.33,-128.65"/>
<text text-anchor="middle" x="456.84" y="-144.8" font-family="Times,serif" font-size="14.00">Pushes processed data</text>
</g>
<!-- DataStudioReport -->
<g id="node7" class="node">
<title>DataStudioReport</title>
<ellipse fill="none" stroke="black" cx="435.84" cy="-18" rx="94.78" ry="18"/>
<text text-anchor="middle" x="435.84" y="-14.3" font-family="Times,serif" font-size="14.00">DataStudio report</text>
</g>
<!-- BigQuery&#45;&gt;DataStudioReport -->
<g id="edge6" class="edge">
<title>BigQuery&#45;&gt;DataStudioReport</title>
<path fill="none" stroke="black" d="M435.84,-86.8C435.84,-75.16 435.84,-59.55 435.84,-46.24"/>
<polygon fill="black" stroke="black" points="439.34,-46.18 435.84,-36.18 432.34,-46.18 439.34,-46.18"/>
<text text-anchor="middle" x="513.34" y="-57.8" font-family="Times,serif" font-size="14.00">Data pulls into report</text>
</g>
</g>
</svg>
