<?xml version="1.0" encoding="UTF-8" standalone="no"?>
<!DOCTYPE svg PUBLIC "-//W3C//DTD SVG 1.1//EN"
 "http://www.w3.org/Graphics/SVG/1.1/DTD/svg11.dtd">
<!-- Generated by graphviz version 2.43.0 (0)
 -->
<!-- Title: asn_data_pipeline Pages: 1 -->
<svg width="454pt" height="241pt"
 viewBox="0.00 0.00 453.83 241.00" xmlns="http://www.w3.org/2000/svg" xmlns:xlink="http://www.w3.org/1999/xlink">
<g id="graph0" class="graph" transform="scale(1 1) rotate(0) translate(4 237)">
<title>asn_data_pipeline</title>
<polygon fill="white" stroke="transparent" points="-4,4 -4,-237 449.83,-237 449.83,4 -4,4"/>
<text text-anchor="middle" x="222.92" y="-217.8" font-family="Times,serif" font-size="14.00">Pipeline plan</text>
<!-- ASNData -->
<g id="node1" class="node">
<title>ASNData</title>
<ellipse fill="none" stroke="black" cx="54.6" cy="-192" rx="54.69" ry="18"/>
<text text-anchor="middle" x="54.6" y="-188.3" font-family="Times,serif" font-size="14.00">ASN data</text>
</g>
<!-- BigQueryDataSet -->
<g id="node3" class="node">
<title>BigQueryDataSet</title>
<ellipse fill="none" stroke="black" cx="170.6" cy="-105" rx="93.68" ry="18"/>
<text text-anchor="middle" x="170.6" y="-101.3" font-family="Times,serif" font-size="14.00">BigQuery Dataset</text>
</g>
<!-- ASNData&#45;&gt;BigQueryDataSet -->
<g id="edge1" class="edge">
<title>ASNData&#45;&gt;BigQueryDataSet</title>
<path fill="none" stroke="black" d="M75.87,-175.41C93.73,-162.33 119.47,-143.46 139.62,-128.7"/>
<polygon fill="black" stroke="black" points="141.87,-131.39 147.87,-122.65 137.73,-125.74 141.87,-131.39"/>
<text text-anchor="middle" x="179.6" y="-144.8" font-family="Times,serif" font-size="14.00">ASN data loaded</text>
</g>
<!-- KubernetesPublicArtifactLogs -->
<g id="node2" class="node">
<title>KubernetesPublicArtifactLogs</title>
<ellipse fill="none" stroke="black" cx="286.6" cy="-192" rx="159.47" ry="18"/>
<text text-anchor="middle" x="286.6" y="-188.3" font-family="Times,serif" font-size="14.00">Kubernetes Public Artifact Logs</text>
</g>
<!-- KubernetesPublicArtifactLogs&#45;&gt;BigQueryDataSet -->
<g id="edge2" class="edge">
<title>KubernetesPublicArtifactLogs&#45;&gt;BigQueryDataSet</title>
<path fill="none" stroke="black" d="M274.55,-173.64C266.65,-163.2 255.59,-150.19 243.6,-141 236.22,-135.35 227.79,-130.28 219.34,-125.88"/>
<polygon fill="black" stroke="black" points="220.72,-122.66 210.21,-121.36 217.62,-128.93 220.72,-122.66"/>
<text text-anchor="middle" x="301.6" y="-144.8" font-family="Times,serif" font-size="14.00">Logs loaded</text>
</g>
<!-- DataStudioReport -->
<g id="node4" class="node">
<title>DataStudioReport</title>
<ellipse fill="none" stroke="black" cx="170.6" cy="-18" rx="97.48" ry="18"/>
<text text-anchor="middle" x="170.6" y="-14.3" font-family="Times,serif" font-size="14.00">DataStudio Report</text>
</g>
<!-- BigQueryDataSet&#45;&gt;DataStudioReport -->
<g id="edge3" class="edge">
<title>BigQueryDataSet&#45;&gt;DataStudioReport</title>
<path fill="none" stroke="black" d="M170.6,-86.8C170.6,-75.16 170.6,-59.55 170.6,-46.24"/>
<polygon fill="black" stroke="black" points="174.1,-46.18 170.6,-36.18 167.1,-46.18 174.1,-46.18"/>
<text text-anchor="middle" x="224.1" y="-57.8" font-family="Times,serif" font-size="14.00">Data displayed</text>
</g>
</g>
</svg>
